<mxfile host="app.diagrams.net" agent="Mozilla/5.0 (Windows NT 10.0; Win64; x64) AppleWebKit/537.36 (KHTML, like Gecko) Chrome/131.0.0.0 Safari/537.36" version="25.0.1">
  <diagram name="Página-1" id="DILShjeq_Po7gynqehbg">
    <mxGraphModel dx="1210" dy="447" grid="1" gridSize="10" guides="1" tooltips="1" connect="1" arrows="1" fold="1" page="1" pageScale="1" pageWidth="827" pageHeight="1169" math="0" shadow="0">
      <root>
        <mxCell id="0" />
        <mxCell id="1" parent="0" />
        <mxCell id="vy71kqGw1Lxcrfu0AF_k-4" value="" style="edgeStyle=orthogonalEdgeStyle;rounded=0;orthogonalLoop=1;jettySize=auto;html=1;entryX=0.5;entryY=0;entryDx=0;entryDy=0;" parent="1" source="vy71kqGw1Lxcrfu0AF_k-5" target="vy71kqGw1Lxcrfu0AF_k-8" edge="1">
          <mxGeometry relative="1" as="geometry">
            <mxPoint x="215" y="165" as="targetPoint" />
          </mxGeometry>
        </mxCell>
        <mxCell id="vy71kqGw1Lxcrfu0AF_k-5" value="&lt;b&gt;Sensor não funciona&lt;/b&gt;" style="rounded=1;whiteSpace=wrap;html=1;" parent="1" vertex="1">
          <mxGeometry x="145" y="45" width="160" height="60" as="geometry" />
        </mxCell>
        <mxCell id="vy71kqGw1Lxcrfu0AF_k-6" value="" style="edgeStyle=orthogonalEdgeStyle;rounded=0;orthogonalLoop=1;jettySize=auto;html=1;" parent="1" source="vy71kqGw1Lxcrfu0AF_k-8" target="vy71kqGw1Lxcrfu0AF_k-10" edge="1">
          <mxGeometry relative="1" as="geometry" />
        </mxCell>
        <mxCell id="vy71kqGw1Lxcrfu0AF_k-7" style="edgeStyle=orthogonalEdgeStyle;rounded=0;orthogonalLoop=1;jettySize=auto;html=1;entryX=0.5;entryY=0;entryDx=0;entryDy=0;" parent="1" source="vy71kqGw1Lxcrfu0AF_k-8" target="vy71kqGw1Lxcrfu0AF_k-20" edge="1">
          <mxGeometry relative="1" as="geometry" />
        </mxCell>
        <mxCell id="vy71kqGw1Lxcrfu0AF_k-8" value="&lt;b&gt;Sensor está conectado à uma fonte de energia?&lt;/b&gt;" style="rhombus;whiteSpace=wrap;html=1;" parent="1" vertex="1">
          <mxGeometry x="145" y="135" width="160" height="100" as="geometry" />
        </mxCell>
        <mxCell id="vy71kqGw1Lxcrfu0AF_k-9" style="edgeStyle=orthogonalEdgeStyle;rounded=0;orthogonalLoop=1;jettySize=auto;html=1;entryX=0;entryY=0.5;entryDx=0;entryDy=0;" parent="1" source="vy71kqGw1Lxcrfu0AF_k-10" target="vy71kqGw1Lxcrfu0AF_k-12" edge="1">
          <mxGeometry relative="1" as="geometry" />
        </mxCell>
        <mxCell id="vy71kqGw1Lxcrfu0AF_k-10" value="&lt;b&gt;Conecte à fonte de energia&lt;/b&gt;" style="whiteSpace=wrap;html=1;" parent="1" vertex="1">
          <mxGeometry x="385" y="155" width="160" height="60" as="geometry" />
        </mxCell>
        <mxCell id="vy71kqGw1Lxcrfu0AF_k-11" style="edgeStyle=orthogonalEdgeStyle;rounded=0;orthogonalLoop=1;jettySize=auto;html=1;" parent="1" source="vy71kqGw1Lxcrfu0AF_k-12" target="vy71kqGw1Lxcrfu0AF_k-14" edge="1">
          <mxGeometry relative="1" as="geometry" />
        </mxCell>
        <mxCell id="vy71kqGw1Lxcrfu0AF_k-102" style="edgeStyle=orthogonalEdgeStyle;rounded=0;orthogonalLoop=1;jettySize=auto;html=1;entryX=0.5;entryY=0.05;entryDx=0;entryDy=0;entryPerimeter=0;" parent="1" source="vy71kqGw1Lxcrfu0AF_k-12" target="vy71kqGw1Lxcrfu0AF_k-104" edge="1">
          <mxGeometry relative="1" as="geometry">
            <mxPoint x="775" y="600" as="targetPoint" />
          </mxGeometry>
        </mxCell>
        <mxCell id="vy71kqGw1Lxcrfu0AF_k-12" value="&lt;b&gt;Funcionou?&lt;/b&gt;" style="rhombus;whiteSpace=wrap;html=1;" parent="1" vertex="1">
          <mxGeometry x="695" y="270" width="160" height="100" as="geometry" />
        </mxCell>
        <mxCell id="vy71kqGw1Lxcrfu0AF_k-14" value="&lt;b&gt;Fim&lt;/b&gt;" style="rounded=1;whiteSpace=wrap;html=1;" parent="1" vertex="1">
          <mxGeometry x="975" y="290" width="160" height="60" as="geometry" />
        </mxCell>
        <mxCell id="vy71kqGw1Lxcrfu0AF_k-15" value="&lt;b&gt;Não&lt;/b&gt;" style="text;html=1;align=center;verticalAlign=middle;resizable=0;points=[];autosize=1;strokeColor=none;fillColor=none;" parent="1" vertex="1">
          <mxGeometry x="315" y="155" width="50" height="30" as="geometry" />
        </mxCell>
        <mxCell id="vy71kqGw1Lxcrfu0AF_k-16" value="&lt;b&gt;Sim&lt;/b&gt;" style="text;html=1;align=center;verticalAlign=middle;resizable=0;points=[];autosize=1;strokeColor=none;fillColor=none;" parent="1" vertex="1">
          <mxGeometry x="877" y="290" width="50" height="30" as="geometry" />
        </mxCell>
        <mxCell id="vy71kqGw1Lxcrfu0AF_k-18" value="" style="edgeStyle=orthogonalEdgeStyle;rounded=0;orthogonalLoop=1;jettySize=auto;html=1;" parent="1" source="vy71kqGw1Lxcrfu0AF_k-20" target="vy71kqGw1Lxcrfu0AF_k-22" edge="1">
          <mxGeometry relative="1" as="geometry" />
        </mxCell>
        <mxCell id="vy71kqGw1Lxcrfu0AF_k-19" style="edgeStyle=orthogonalEdgeStyle;rounded=0;orthogonalLoop=1;jettySize=auto;html=1;entryX=0.5;entryY=0;entryDx=0;entryDy=0;" parent="1" source="vy71kqGw1Lxcrfu0AF_k-20" target="vy71kqGw1Lxcrfu0AF_k-25" edge="1">
          <mxGeometry relative="1" as="geometry" />
        </mxCell>
        <mxCell id="vy71kqGw1Lxcrfu0AF_k-20" value="&lt;b&gt;Sensor está em modo manutenção?&lt;/b&gt;" style="rhombus;whiteSpace=wrap;html=1;" parent="1" vertex="1">
          <mxGeometry x="145" y="270" width="160" height="100" as="geometry" />
        </mxCell>
        <mxCell id="vy71kqGw1Lxcrfu0AF_k-21" style="edgeStyle=orthogonalEdgeStyle;rounded=0;orthogonalLoop=1;jettySize=auto;html=1;entryX=0;entryY=0.5;entryDx=0;entryDy=0;" parent="1" source="vy71kqGw1Lxcrfu0AF_k-22" target="vy71kqGw1Lxcrfu0AF_k-12" edge="1">
          <mxGeometry relative="1" as="geometry" />
        </mxCell>
        <mxCell id="vy71kqGw1Lxcrfu0AF_k-22" value="&lt;b&gt;Desligar modo manutenção&lt;/b&gt;" style="whiteSpace=wrap;html=1;" parent="1" vertex="1">
          <mxGeometry x="385" y="290" width="160" height="60" as="geometry" />
        </mxCell>
        <mxCell id="vy71kqGw1Lxcrfu0AF_k-23" value="&lt;b&gt;Sim&lt;/b&gt;" style="text;html=1;align=center;verticalAlign=middle;resizable=0;points=[];autosize=1;strokeColor=none;fillColor=none;" parent="1" vertex="1">
          <mxGeometry x="315" y="290" width="50" height="30" as="geometry" />
        </mxCell>
        <mxCell id="vy71kqGw1Lxcrfu0AF_k-24" value="" style="edgeStyle=orthogonalEdgeStyle;rounded=0;orthogonalLoop=1;jettySize=auto;html=1;" parent="1" source="vy71kqGw1Lxcrfu0AF_k-25" target="vy71kqGw1Lxcrfu0AF_k-29" edge="1">
          <mxGeometry relative="1" as="geometry" />
        </mxCell>
        <mxCell id="vy71kqGw1Lxcrfu0AF_k-25" value="&lt;b&gt;Sensor está no local que foi originalmente instalado?&lt;/b&gt;" style="rhombus;whiteSpace=wrap;html=1;" parent="1" vertex="1">
          <mxGeometry x="145" y="405" width="160" height="100" as="geometry" />
        </mxCell>
        <mxCell id="vy71kqGw1Lxcrfu0AF_k-26" value="&lt;b&gt;Sim&lt;/b&gt;" style="text;html=1;align=center;verticalAlign=middle;resizable=0;points=[];autosize=1;strokeColor=none;fillColor=none;" parent="1" vertex="1">
          <mxGeometry x="215" y="235" width="50" height="30" as="geometry" />
        </mxCell>
        <mxCell id="vy71kqGw1Lxcrfu0AF_k-27" value="&lt;b&gt;Não&lt;/b&gt;" style="text;html=1;align=center;verticalAlign=middle;resizable=0;points=[];autosize=1;strokeColor=none;fillColor=none;" parent="1" vertex="1">
          <mxGeometry x="215" y="370" width="50" height="30" as="geometry" />
        </mxCell>
        <mxCell id="vy71kqGw1Lxcrfu0AF_k-28" style="edgeStyle=orthogonalEdgeStyle;rounded=0;orthogonalLoop=1;jettySize=auto;html=1;entryX=0;entryY=0.5;entryDx=0;entryDy=0;" parent="1" source="vy71kqGw1Lxcrfu0AF_k-29" target="vy71kqGw1Lxcrfu0AF_k-12" edge="1">
          <mxGeometry relative="1" as="geometry" />
        </mxCell>
        <mxCell id="vy71kqGw1Lxcrfu0AF_k-29" value="&lt;b&gt;Retorne-o ao local sugerido&lt;/b&gt;" style="whiteSpace=wrap;html=1;" parent="1" vertex="1">
          <mxGeometry x="385" y="425" width="160" height="60" as="geometry" />
        </mxCell>
        <mxCell id="vy71kqGw1Lxcrfu0AF_k-30" value="&lt;b&gt;Não&lt;/b&gt;" style="text;html=1;align=center;verticalAlign=middle;resizable=0;points=[];autosize=1;strokeColor=none;fillColor=none;" parent="1" vertex="1">
          <mxGeometry x="315" y="425" width="50" height="30" as="geometry" />
        </mxCell>
        <mxCell id="vy71kqGw1Lxcrfu0AF_k-31" value="&lt;b style=&quot;&quot;&gt;&lt;font style=&quot;font-size: 14px;&quot;&gt;Atendimento&lt;/font&gt;&lt;/b&gt;&lt;div&gt;&lt;b style=&quot;&quot;&gt;&lt;font size=&quot;3&quot;&gt;N1&lt;/font&gt;&lt;/b&gt;&lt;/div&gt;" style="text;html=1;align=center;verticalAlign=middle;resizable=0;points=[];autosize=1;strokeColor=none;fillColor=none;rotation=-90;" parent="1" vertex="1">
          <mxGeometry x="-25" y="250" width="110" height="50" as="geometry" />
        </mxCell>
        <mxCell id="vy71kqGw1Lxcrfu0AF_k-32" value="" style="endArrow=none;html=1;rounded=0;" parent="1" edge="1">
          <mxGeometry width="50" height="50" relative="1" as="geometry">
            <mxPoint x="55" y="570" as="sourcePoint" />
            <mxPoint x="55" y="10" as="targetPoint" />
            <Array as="points" />
          </mxGeometry>
        </mxCell>
        <mxCell id="vy71kqGw1Lxcrfu0AF_k-33" value="" style="endArrow=none;html=1;rounded=0;" parent="1" edge="1">
          <mxGeometry width="50" height="50" relative="1" as="geometry">
            <mxPoint x="10" y="1000" as="sourcePoint" />
            <mxPoint x="1150" y="1000" as="targetPoint" />
          </mxGeometry>
        </mxCell>
        <mxCell id="vy71kqGw1Lxcrfu0AF_k-34" value="" style="endArrow=none;html=1;rounded=0;" parent="1" edge="1">
          <mxGeometry width="50" height="50" relative="1" as="geometry">
            <mxPoint x="1155" y="570" as="sourcePoint" />
            <mxPoint x="1155" y="10" as="targetPoint" />
          </mxGeometry>
        </mxCell>
        <mxCell id="vy71kqGw1Lxcrfu0AF_k-35" value="" style="edgeStyle=orthogonalEdgeStyle;rounded=0;orthogonalLoop=1;jettySize=auto;html=1;entryX=0.5;entryY=0;entryDx=0;entryDy=0;exitX=0;exitY=0.5;exitDx=0;exitDy=0;" parent="1" source="vy71kqGw1Lxcrfu0AF_k-104" edge="1" target="vy71kqGw1Lxcrfu0AF_k-39">
          <mxGeometry relative="1" as="geometry">
            <mxPoint x="225.00000000000023" y="705" as="targetPoint" />
            <mxPoint x="695" y="640" as="sourcePoint" />
          </mxGeometry>
        </mxCell>
        <mxCell id="vy71kqGw1Lxcrfu0AF_k-37" value="" style="edgeStyle=orthogonalEdgeStyle;rounded=0;orthogonalLoop=1;jettySize=auto;html=1;" parent="1" source="vy71kqGw1Lxcrfu0AF_k-39" target="vy71kqGw1Lxcrfu0AF_k-41" edge="1">
          <mxGeometry relative="1" as="geometry" />
        </mxCell>
        <mxCell id="vy71kqGw1Lxcrfu0AF_k-39" value="&lt;b&gt;Arduíno está configurado?&lt;/b&gt;" style="rhombus;whiteSpace=wrap;html=1;" parent="1" vertex="1">
          <mxGeometry x="145" y="740" width="160" height="100" as="geometry" />
        </mxCell>
        <mxCell id="vy71kqGw1Lxcrfu0AF_k-40" style="edgeStyle=orthogonalEdgeStyle;rounded=0;orthogonalLoop=1;jettySize=auto;html=1;entryX=0;entryY=0.5;entryDx=0;entryDy=0;" parent="1" source="vy71kqGw1Lxcrfu0AF_k-41" target="vy71kqGw1Lxcrfu0AF_k-43" edge="1">
          <mxGeometry relative="1" as="geometry" />
        </mxCell>
        <mxCell id="vy71kqGw1Lxcrfu0AF_k-41" value="&lt;b&gt;Configure arduíno com o código do arduíno IDE&lt;/b&gt;" style="whiteSpace=wrap;html=1;" parent="1" vertex="1">
          <mxGeometry x="380" y="760" width="160" height="60" as="geometry" />
        </mxCell>
        <mxCell id="vy71kqGw1Lxcrfu0AF_k-42" style="edgeStyle=orthogonalEdgeStyle;rounded=0;orthogonalLoop=1;jettySize=auto;html=1;" parent="1" source="vy71kqGw1Lxcrfu0AF_k-43" target="vy71kqGw1Lxcrfu0AF_k-45" edge="1">
          <mxGeometry relative="1" as="geometry" />
        </mxCell>
        <mxCell id="nWh8ITIf1VVgEmEfXXOC-1" style="edgeStyle=orthogonalEdgeStyle;rounded=0;orthogonalLoop=1;jettySize=auto;html=1;entryX=0.5;entryY=0;entryDx=0;entryDy=0;" edge="1" parent="1" source="vy71kqGw1Lxcrfu0AF_k-43" target="nWh8ITIf1VVgEmEfXXOC-3">
          <mxGeometry relative="1" as="geometry">
            <mxPoint x="775.0000000000002" y="1050" as="targetPoint" />
            <Array as="points">
              <mxPoint x="775" y="1010" />
              <mxPoint x="776" y="1050" />
            </Array>
          </mxGeometry>
        </mxCell>
        <mxCell id="vy71kqGw1Lxcrfu0AF_k-43" value="&lt;b&gt;Funcionou?&lt;/b&gt;" style="rhombus;whiteSpace=wrap;html=1;" parent="1" vertex="1">
          <mxGeometry x="695" y="870" width="160" height="100" as="geometry" />
        </mxCell>
        <mxCell id="vy71kqGw1Lxcrfu0AF_k-45" value="&lt;b&gt;Fim&lt;/b&gt;" style="rounded=1;whiteSpace=wrap;html=1;" parent="1" vertex="1">
          <mxGeometry x="975" y="890" width="160" height="60" as="geometry" />
        </mxCell>
        <mxCell id="vy71kqGw1Lxcrfu0AF_k-46" value="&lt;b&gt;Não&lt;/b&gt;" style="text;html=1;align=center;verticalAlign=middle;resizable=0;points=[];autosize=1;strokeColor=none;fillColor=none;" parent="1" vertex="1">
          <mxGeometry x="315" y="715" width="50" height="30" as="geometry" />
        </mxCell>
        <mxCell id="vy71kqGw1Lxcrfu0AF_k-47" value="&lt;b&gt;Sim&lt;/b&gt;" style="text;html=1;align=center;verticalAlign=middle;resizable=0;points=[];autosize=1;strokeColor=none;fillColor=none;" parent="1" vertex="1">
          <mxGeometry x="877" y="890" width="50" height="30" as="geometry" />
        </mxCell>
        <mxCell id="vy71kqGw1Lxcrfu0AF_k-48" value="&lt;b&gt;Não&lt;/b&gt;" style="text;html=1;align=center;verticalAlign=middle;resizable=0;points=[];autosize=1;strokeColor=none;fillColor=none;" parent="1" vertex="1">
          <mxGeometry x="775" y="455" width="50" height="30" as="geometry" />
        </mxCell>
        <mxCell id="vy71kqGw1Lxcrfu0AF_k-63" value="" style="endArrow=none;html=1;rounded=0;" parent="1" edge="1">
          <mxGeometry width="50" height="50" relative="1" as="geometry">
            <mxPoint x="55" y="1130" as="sourcePoint" />
            <mxPoint x="55" y="570" as="targetPoint" />
            <Array as="points" />
          </mxGeometry>
        </mxCell>
        <mxCell id="vy71kqGw1Lxcrfu0AF_k-64" value="" style="endArrow=none;html=1;rounded=0;" parent="1" edge="1">
          <mxGeometry width="50" height="50" relative="1" as="geometry">
            <mxPoint x="1155" y="1130" as="sourcePoint" />
            <mxPoint x="1155" y="570" as="targetPoint" />
          </mxGeometry>
        </mxCell>
        <mxCell id="vy71kqGw1Lxcrfu0AF_k-65" value="" style="endArrow=none;html=1;rounded=0;" parent="1" edge="1">
          <mxGeometry width="50" height="50" relative="1" as="geometry">
            <mxPoint x="15" y="580" as="sourcePoint" />
            <mxPoint x="1150" y="580" as="targetPoint" />
          </mxGeometry>
        </mxCell>
        <mxCell id="vy71kqGw1Lxcrfu0AF_k-66" value="&lt;span style=&quot;font-size: 14px;&quot;&gt;&lt;b&gt;Manutenção&lt;/b&gt;&lt;/span&gt;&lt;div&gt;&lt;span style=&quot;font-size: 14px;&quot;&gt;&lt;b&gt;N2&lt;/b&gt;&lt;/span&gt;&lt;/div&gt;" style="text;html=1;align=center;verticalAlign=middle;resizable=0;points=[];autosize=1;strokeColor=none;fillColor=none;rotation=-90;" parent="1" vertex="1">
          <mxGeometry x="-25" y="780" width="110" height="50" as="geometry" />
        </mxCell>
        <mxCell id="vy71kqGw1Lxcrfu0AF_k-67" value="" style="endArrow=none;html=1;rounded=0;" parent="1" edge="1">
          <mxGeometry width="50" height="50" relative="1" as="geometry">
            <mxPoint y="10" as="sourcePoint" />
            <mxPoint x="1150" y="10" as="targetPoint" />
          </mxGeometry>
        </mxCell>
        <mxCell id="vy71kqGw1Lxcrfu0AF_k-68" value="" style="endArrow=none;html=1;rounded=0;" parent="1" edge="1">
          <mxGeometry width="50" height="50" relative="1" as="geometry">
            <mxPoint x="10" y="1500" as="sourcePoint" />
            <mxPoint x="1150" y="1500" as="targetPoint" />
          </mxGeometry>
        </mxCell>
        <mxCell id="vy71kqGw1Lxcrfu0AF_k-76" style="edgeStyle=orthogonalEdgeStyle;rounded=0;orthogonalLoop=1;jettySize=auto;html=1;" parent="1" source="vy71kqGw1Lxcrfu0AF_k-77" target="vy71kqGw1Lxcrfu0AF_k-79" edge="1">
          <mxGeometry relative="1" as="geometry" />
        </mxCell>
        <mxCell id="vy71kqGw1Lxcrfu0AF_k-77" value="&lt;b&gt;Funcionou?&lt;/b&gt;" style="rhombus;whiteSpace=wrap;html=1;" parent="1" vertex="1">
          <mxGeometry x="570" y="1360" width="160" height="100" as="geometry" />
        </mxCell>
        <mxCell id="vy71kqGw1Lxcrfu0AF_k-79" value="&lt;b&gt;Fim&lt;/b&gt;" style="rounded=1;whiteSpace=wrap;html=1;" parent="1" vertex="1">
          <mxGeometry x="950" y="1270" width="160" height="60" as="geometry" />
        </mxCell>
        <mxCell id="vy71kqGw1Lxcrfu0AF_k-81" value="&lt;b&gt;Sim&lt;/b&gt;" style="text;html=1;align=center;verticalAlign=middle;resizable=0;points=[];autosize=1;strokeColor=none;fillColor=none;" parent="1" vertex="1">
          <mxGeometry x="630" y="1070" width="50" height="30" as="geometry" />
        </mxCell>
        <mxCell id="vy71kqGw1Lxcrfu0AF_k-82" value="&lt;b&gt;Não&lt;/b&gt;" style="text;html=1;align=center;verticalAlign=middle;resizable=0;points=[];autosize=1;strokeColor=none;fillColor=none;" parent="1" vertex="1">
          <mxGeometry x="775" y="1150" width="50" height="30" as="geometry" />
        </mxCell>
        <mxCell id="vy71kqGw1Lxcrfu0AF_k-96" value="" style="endArrow=none;html=1;rounded=0;" parent="1" edge="1">
          <mxGeometry width="50" height="50" relative="1" as="geometry">
            <mxPoint x="55" y="1500" as="sourcePoint" />
            <mxPoint x="55" y="1130" as="targetPoint" />
            <Array as="points" />
          </mxGeometry>
        </mxCell>
        <mxCell id="vy71kqGw1Lxcrfu0AF_k-97" value="" style="endArrow=none;html=1;rounded=0;" parent="1" edge="1">
          <mxGeometry width="50" height="50" relative="1" as="geometry">
            <mxPoint x="1155" y="1500" as="sourcePoint" />
            <mxPoint x="1155" y="1130" as="targetPoint" />
          </mxGeometry>
        </mxCell>
        <mxCell id="vy71kqGw1Lxcrfu0AF_k-99" value="&lt;span style=&quot;font-size: 14px;&quot;&gt;&lt;b&gt;Código&lt;/b&gt;&lt;/span&gt;&lt;div&gt;&lt;span style=&quot;font-size: 14px;&quot;&gt;&lt;b&gt;N3&lt;/b&gt;&lt;/span&gt;&lt;/div&gt;" style="text;html=1;align=center;verticalAlign=middle;resizable=0;points=[];autosize=1;strokeColor=none;fillColor=none;rotation=-90;" parent="1" vertex="1">
          <mxGeometry y="1245" width="70" height="50" as="geometry" />
        </mxCell>
        <mxCell id="vy71kqGw1Lxcrfu0AF_k-108" style="edgeStyle=orthogonalEdgeStyle;rounded=0;orthogonalLoop=1;jettySize=auto;html=1;entryX=0.5;entryY=0;entryDx=0;entryDy=0;" parent="1" source="vy71kqGw1Lxcrfu0AF_k-104" target="vy71kqGw1Lxcrfu0AF_k-107" edge="1">
          <mxGeometry relative="1" as="geometry" />
        </mxCell>
        <mxCell id="vy71kqGw1Lxcrfu0AF_k-104" value="&lt;b&gt;Está Danificado?&lt;/b&gt;" style="rhombus;whiteSpace=wrap;html=1;" parent="1" vertex="1">
          <mxGeometry x="695" y="585" width="160" height="100" as="geometry" />
        </mxCell>
        <mxCell id="vy71kqGw1Lxcrfu0AF_k-105" value="&lt;b&gt;Não&lt;/b&gt;" style="text;html=1;align=center;verticalAlign=middle;resizable=0;points=[];autosize=1;strokeColor=none;fillColor=none;" parent="1" vertex="1">
          <mxGeometry x="460" y="610" width="50" height="30" as="geometry" />
        </mxCell>
        <mxCell id="vy71kqGw1Lxcrfu0AF_k-109" style="edgeStyle=orthogonalEdgeStyle;rounded=0;orthogonalLoop=1;jettySize=auto;html=1;entryX=0.5;entryY=0;entryDx=0;entryDy=0;" parent="1" source="vy71kqGw1Lxcrfu0AF_k-107" target="vy71kqGw1Lxcrfu0AF_k-43" edge="1">
          <mxGeometry relative="1" as="geometry" />
        </mxCell>
        <mxCell id="vy71kqGw1Lxcrfu0AF_k-107" value="&lt;b&gt;Substituir Sensor&lt;/b&gt;" style="whiteSpace=wrap;html=1;" parent="1" vertex="1">
          <mxGeometry x="695" y="745" width="160" height="60" as="geometry" />
        </mxCell>
        <mxCell id="nWh8ITIf1VVgEmEfXXOC-2" value="&lt;b&gt;Não&lt;/b&gt;" style="text;html=1;align=center;verticalAlign=middle;resizable=0;points=[];autosize=1;strokeColor=none;fillColor=none;" vertex="1" parent="1">
          <mxGeometry x="775" y="1000" width="50" height="30" as="geometry" />
        </mxCell>
        <mxCell id="nWh8ITIf1VVgEmEfXXOC-6" style="edgeStyle=orthogonalEdgeStyle;rounded=0;orthogonalLoop=1;jettySize=auto;html=1;entryX=0.5;entryY=0;entryDx=0;entryDy=0;" edge="1" parent="1" source="nWh8ITIf1VVgEmEfXXOC-3" target="nWh8ITIf1VVgEmEfXXOC-4">
          <mxGeometry relative="1" as="geometry" />
        </mxCell>
        <mxCell id="nWh8ITIf1VVgEmEfXXOC-10" style="edgeStyle=orthogonalEdgeStyle;rounded=0;orthogonalLoop=1;jettySize=auto;html=1;entryX=1;entryY=0.5;entryDx=0;entryDy=0;" edge="1" parent="1" source="nWh8ITIf1VVgEmEfXXOC-3" target="nWh8ITIf1VVgEmEfXXOC-8">
          <mxGeometry relative="1" as="geometry" />
        </mxCell>
        <mxCell id="nWh8ITIf1VVgEmEfXXOC-3" value="&lt;b&gt;API está Funcionando?&lt;/b&gt;&lt;div&gt;&lt;b&gt;está dando Select no banco?&lt;/b&gt;&lt;/div&gt;" style="rhombus;whiteSpace=wrap;html=1;" vertex="1" parent="1">
          <mxGeometry x="695" y="1050" width="160" height="100" as="geometry" />
        </mxCell>
        <mxCell id="nWh8ITIf1VVgEmEfXXOC-7" value="" style="edgeStyle=orthogonalEdgeStyle;rounded=0;orthogonalLoop=1;jettySize=auto;html=1;entryX=0.5;entryY=0;entryDx=0;entryDy=0;" edge="1" parent="1" source="nWh8ITIf1VVgEmEfXXOC-4" target="vy71kqGw1Lxcrfu0AF_k-77">
          <mxGeometry relative="1" as="geometry" />
        </mxCell>
        <mxCell id="nWh8ITIf1VVgEmEfXXOC-4" value="&lt;b&gt;Arrume o select&lt;/b&gt;" style="rounded=1;whiteSpace=wrap;html=1;" vertex="1" parent="1">
          <mxGeometry x="695" y="1190" width="160" height="50" as="geometry" />
        </mxCell>
        <mxCell id="nWh8ITIf1VVgEmEfXXOC-12" style="edgeStyle=orthogonalEdgeStyle;rounded=0;orthogonalLoop=1;jettySize=auto;html=1;entryX=0.5;entryY=0;entryDx=0;entryDy=0;" edge="1" parent="1" source="nWh8ITIf1VVgEmEfXXOC-8" target="nWh8ITIf1VVgEmEfXXOC-11">
          <mxGeometry relative="1" as="geometry" />
        </mxCell>
        <mxCell id="nWh8ITIf1VVgEmEfXXOC-22" style="edgeStyle=orthogonalEdgeStyle;rounded=0;orthogonalLoop=1;jettySize=auto;html=1;entryX=1;entryY=0.5;entryDx=0;entryDy=0;" edge="1" parent="1" source="nWh8ITIf1VVgEmEfXXOC-8" target="nWh8ITIf1VVgEmEfXXOC-14">
          <mxGeometry relative="1" as="geometry" />
        </mxCell>
        <mxCell id="nWh8ITIf1VVgEmEfXXOC-8" value="&lt;b&gt;Os dados coletados estão sendo inserido no banco?&lt;/b&gt;" style="rhombus;whiteSpace=wrap;html=1;" vertex="1" parent="1">
          <mxGeometry x="460" y="1050" width="160" height="100" as="geometry" />
        </mxCell>
        <mxCell id="nWh8ITIf1VVgEmEfXXOC-23" style="edgeStyle=orthogonalEdgeStyle;rounded=0;orthogonalLoop=1;jettySize=auto;html=1;entryX=0.5;entryY=0;entryDx=0;entryDy=0;" edge="1" parent="1" source="nWh8ITIf1VVgEmEfXXOC-11" target="vy71kqGw1Lxcrfu0AF_k-77">
          <mxGeometry relative="1" as="geometry" />
        </mxCell>
        <mxCell id="nWh8ITIf1VVgEmEfXXOC-11" value="&lt;b&gt;Arrume o insert&lt;/b&gt;" style="rounded=1;whiteSpace=wrap;html=1;" vertex="1" parent="1">
          <mxGeometry x="460" y="1190" width="160" height="50" as="geometry" />
        </mxCell>
        <mxCell id="nWh8ITIf1VVgEmEfXXOC-13" style="edgeStyle=orthogonalEdgeStyle;rounded=0;orthogonalLoop=1;jettySize=auto;html=1;entryX=0.5;entryY=0;entryDx=0;entryDy=0;" edge="1" parent="1" source="nWh8ITIf1VVgEmEfXXOC-14" target="nWh8ITIf1VVgEmEfXXOC-15">
          <mxGeometry relative="1" as="geometry" />
        </mxCell>
        <mxCell id="nWh8ITIf1VVgEmEfXXOC-14" value="&lt;b&gt;A rota da Dash está correta?&lt;/b&gt;" style="rhombus;whiteSpace=wrap;html=1;" vertex="1" parent="1">
          <mxGeometry x="254" y="1050" width="160" height="100" as="geometry" />
        </mxCell>
        <mxCell id="nWh8ITIf1VVgEmEfXXOC-24" style="edgeStyle=orthogonalEdgeStyle;rounded=0;orthogonalLoop=1;jettySize=auto;html=1;" edge="1" parent="1" source="nWh8ITIf1VVgEmEfXXOC-15">
          <mxGeometry relative="1" as="geometry">
            <mxPoint x="650" y="1360" as="targetPoint" />
            <Array as="points">
              <mxPoint x="334" y="1300" />
              <mxPoint x="650" y="1300" />
            </Array>
          </mxGeometry>
        </mxCell>
        <mxCell id="nWh8ITIf1VVgEmEfXXOC-15" value="&lt;b&gt;Faça a rota corretamente&lt;/b&gt;" style="rounded=1;whiteSpace=wrap;html=1;" vertex="1" parent="1">
          <mxGeometry x="254" y="1190" width="160" height="50" as="geometry" />
        </mxCell>
        <mxCell id="nWh8ITIf1VVgEmEfXXOC-16" value="&lt;b&gt;Não&lt;/b&gt;" style="text;html=1;align=center;verticalAlign=middle;resizable=0;points=[];autosize=1;strokeColor=none;fillColor=none;" vertex="1" parent="1">
          <mxGeometry x="545" y="1150" width="50" height="30" as="geometry" />
        </mxCell>
        <mxCell id="nWh8ITIf1VVgEmEfXXOC-19" value="&lt;b&gt;Sim&lt;/b&gt;" style="text;html=1;align=center;verticalAlign=middle;resizable=0;points=[];autosize=1;strokeColor=none;fillColor=none;" vertex="1" parent="1">
          <mxGeometry x="630" y="1070" width="50" height="30" as="geometry" />
        </mxCell>
        <mxCell id="nWh8ITIf1VVgEmEfXXOC-20" value="&lt;b&gt;Sim&lt;/b&gt;" style="text;html=1;align=center;verticalAlign=middle;resizable=0;points=[];autosize=1;strokeColor=none;fillColor=none;" vertex="1" parent="1">
          <mxGeometry x="414" y="1060" width="50" height="30" as="geometry" />
        </mxCell>
        <mxCell id="nWh8ITIf1VVgEmEfXXOC-25" value="&lt;b&gt;Não&lt;/b&gt;" style="text;html=1;align=center;verticalAlign=middle;resizable=0;points=[];autosize=1;strokeColor=none;fillColor=none;" vertex="1" parent="1">
          <mxGeometry x="335" y="1150" width="50" height="30" as="geometry" />
        </mxCell>
      </root>
    </mxGraphModel>
  </diagram>
</mxfile>
